# xmcd
#
# Track frame offsets:
#	150
#	12751
#	27897
#	37560
#	49911
#	64808
#	83686
#	97828
#	114021
#	129018
#	145851
#	159267
#
# Disc length: 2276 seconds
# Revision: 0
# Processed by: cddbd v1.5.2PL0 Copyright (c) Steve Scherf et al.
# Submitted via: dBpowerAMP V12.0
#
DISCID=7908e20c
DTITLE=Bill Emerson and Sweet Dixie  - The Gospel Side Of Bill Emerson and Sweet Dixie 
DYEAR=2015
DGENRE=Country
TTITLE0=He Knows My Name
TTITLE1=Will a Light Be Shining Bright
TTITLE2=What a Day
TTITLE3=Little Stone Lambs
TTITLE4=Fifty Miles of Elbow Room
TTITLE5=Thank Him For the Miracle
TTITLE6=Beautiful
TTITLE7=Last Night I Was There
TTITLE8=Drifting Too Far From the Shore
TTITLE9=The Rope
TTITLE10=Keep On The Sunny Side of Life
TTITLE11=The Lord Will Light the Way
EXTD=
EXTT0=
EXTT1=
EXTT2=
EXTT3=
EXTT4=
EXTT5=
EXTT6=
EXTT7=
EXTT8=
EXTT9=
EXTT10=
EXTT11=
PLAYORDER=
